<svg width="258" height="137" viewBox="0 0 258 137" fill="none" xmlns="http://www.w3.org/2000/svg">
<path fill-rule="evenodd" clip-rule="evenodd" d="M88.8604 117.163C88.3982 117.272 87.9118 117.329 87.4097 117.327C74.9422 117.29 40.6897 117.189 12.3877 117.179C9.02065 117.179 6.2201 114.558 6.35774 111.509C7.04597 96.5795 7.64949 90.7136 13.4835 84.8849C21.8111 76.5573 44.6814 68.2933 49.5731 68.2933H49.5735C49.9815 67.8846 74.1053 43.9407 126.284 43.9407C184.349 46.5222 197.663 67.7852 205.363 80.0813C205.558 80.3932 205.75 80.6992 205.939 80.9991L188.696 88.8131C174.349 88.8131 171.848 101.294 170.088 110.08C169.703 112.002 169.353 113.747 168.923 115.146C168.552 116.353 167.451 117.163 166.164 117.163H88.8604Z" fill="#C9CEE2"/>
<path d="M118.322 91.9895C118.322 91.9895 118.279 91.9895 118.263 91.9895H102.016C95.0226 91.9895 89.3526 101.164 89.3526 112.483C89.3526 123.801 95.0226 132.976 102.016 132.976H118.263C118.263 132.976 118.306 132.976 118.322 132.976C125.315 132.976 130.985 123.801 130.985 112.483C130.985 101.164 125.315 91.9895 118.322 91.9895Z" fill="#B5C1D6"/>
<path opacity="0.2" d="M118.322 91.9895C118.322 91.9895 118.279 91.9895 118.263 91.9895H102.016C95.0226 91.9895 89.3526 101.164 89.3526 112.483C89.3526 123.801 95.0226 132.976 102.016 132.976H118.263C118.263 132.976 118.306 132.976 118.322 132.976C125.315 132.976 130.985 123.801 130.985 112.483C130.985 101.164 125.315 91.9895 118.322 91.9895Z" fill="#4C5C75"/>
<path d="M44.7132 91.9895C44.7132 91.9895 44.6708 91.9895 44.6549 91.9895H28.4075C21.414 91.9895 15.7441 101.164 15.7441 112.483C15.7441 123.801 21.414 132.976 28.4075 132.976H44.6549C44.6549 132.976 44.6973 132.976 44.7132 132.976C51.7066 132.976 57.3766 123.801 57.3766 112.483C57.3766 101.164 51.7066 91.9895 44.7132 91.9895Z" fill="#4C5C75"/>
<path opacity="0.2" d="M44.7132 91.9895C44.7132 91.9895 44.6708 91.9895 44.6549 91.9895H28.4075C21.414 91.9895 15.7441 101.164 15.7441 112.483C15.7441 123.801 21.414 132.976 28.4075 132.976H44.6549C44.6549 132.976 44.6973 132.976 44.7132 132.976C51.7066 132.976 57.3766 123.801 57.3766 112.483C57.3766 101.164 51.7066 91.9895 44.7132 91.9895Z" fill="#4C5C75"/>
<path d="M200.342 76.4304L204.059 79.6227C205.817 81.1315 206.584 83.498 206.049 85.7533L205.202 89.3214L200.348 76.4304H200.342Z" fill="#407BFF"/>
<path d="M207.082 97.2308C206.436 90.2374 204.61 83.408 201.671 77.034L200.406 74.2864H169.531L185.535 120.345C191.163 118.942 196.383 116.226 200.755 112.419L201.126 112.097C205.388 108.385 207.606 102.858 207.087 97.2308H207.082Z" fill="#EFF8FF"/>
<path opacity="0.5" d="M206.965 97.5907C206.319 90.5972 204.493 83.7679 201.555 77.3939L200.29 74.6462H169.415L185.419 120.705C191.046 119.302 196.266 116.586 200.639 112.779L201.01 112.456C205.271 108.745 207.489 103.218 206.971 97.5907H206.965Z" fill="white"/>
<path d="M166.106 132.976C159.112 132.976 153.442 123.801 153.442 112.483C153.442 101.164 159.112 91.9895 166.106 91.9895H182.353V132.976H166.106Z" fill="#4C5C75"/>
<path d="M182.411 132.976C189.405 132.976 195.075 123.801 195.075 112.483C195.075 101.165 189.405 91.9895 182.411 91.9895C175.418 91.9895 169.748 101.165 169.748 112.483C169.748 123.801 175.418 132.976 182.411 132.976Z" fill="#1D2943"/>
<path opacity="0.2" d="M182.412 125.443C187.318 125.443 191.295 119.64 191.295 112.483C191.295 105.325 187.318 99.5229 182.412 99.5229C177.505 99.5229 173.528 105.325 173.528 112.483C173.528 119.64 177.505 125.443 182.412 125.443Z" fill="#E3E7F0"/>
<path d="M73.6663 120.345L43.2202 71.4751C43.2202 71.4751 67.3082 47.1172 119.936 47.1172C165.492 47.1172 192.777 62.1629 200.406 74.2863L182.348 91.9896C164.862 91.9896 164.973 110.529 162.575 118.322C162.204 119.529 161.103 120.339 159.816 120.339H73.6663" fill="#EFF8FF"/>
<path opacity="0.5" d="M71.2152 120.345L40.7691 71.4751C40.7691 71.4751 64.857 47.1172 117.485 47.1172C163.041 47.1172 190.326 62.1629 197.955 74.2863L179.897 91.9896C162.411 91.9896 162.522 110.529 160.124 118.322C159.753 119.529 158.652 120.339 157.365 120.339H71.2152" fill="#EFF8FF"/>
<path d="M92.4973 132.976C85.5039 132.976 79.8339 123.801 79.8339 112.483C79.8339 101.164 85.5039 91.9895 92.4973 91.9895H108.745V132.976H92.4973Z" fill="#4C5C75"/>
<path d="M108.803 132.976C115.797 132.976 121.466 123.801 121.466 112.483C121.466 101.165 115.797 91.9895 108.803 91.9895C101.809 91.9895 96.1396 101.165 96.1396 112.483C96.1396 123.801 101.809 132.976 108.803 132.976Z" fill="#1D2943"/>
<path opacity="0.2" d="M108.803 125.443C113.709 125.443 117.686 119.64 117.686 112.483C117.686 105.325 113.709 99.5229 108.803 99.5229C103.897 99.5229 99.9196 105.325 99.9196 112.483C99.9196 119.64 103.897 125.443 108.803 125.443Z" fill="#E3E7F0"/>
<path d="M86.5097 116.31C88.0609 107.157 97.1878 91.9896 108.739 91.9896L119.936 71.4751H43.2202C38.3285 71.4751 15.4582 79.7391 7.13066 88.0667C1.29662 93.8954 0.693094 99.7612 0.00486711 114.69C-0.132778 117.74 2.66778 120.36 6.0348 120.36C34.3368 120.371 68.5894 120.472 81.0569 120.509C83.8098 120.519 86.0915 118.762 86.5044 116.31H86.5097Z" fill="#EFF8FF"/>
<path opacity="0.5" d="M86.5146 116.305C88.0658 107.152 97.1927 91.9842 108.744 91.9842L119.941 71.4697H43.2251C38.3334 71.4697 15.4631 79.7337 7.13555 88.0613C1.3015 93.89 0.697977 99.7559 0.00974992 114.685C-0.127895 117.734 2.67266 120.355 6.03968 120.355C34.3417 120.366 68.5942 120.466 81.0617 120.503C83.8146 120.514 86.0964 118.756 86.5093 116.305H86.5146Z" fill="#EFF8FF"/>
<path opacity="0.3" d="M119.936 47.1172C67.6364 47.1172 43.7708 71.0993 43.2255 71.4698H43.2202L96.1396 71.4751C96.1396 71.4751 118.893 51.8077 133.971 47.6201C129.508 47.2919 124.823 47.1172 119.936 47.1172Z" fill="#407BFF"/>
<path opacity="0.7" d="M54.4913 92.4079C61.7547 89.6603 83.6721 81.9362 89.6491 83.9427C95.6261 85.9491 81.1521 93.1173 77.5045 94.0702C73.8622 95.0231 71.464 93.1173 66.0059 95.7537C60.5477 98.3902 45.6979 95.7378 54.486 92.4079H54.4913Z" fill="#396CB7"/>
<path opacity="0.2" d="M144.411 120.625C144.358 120.625 144.3 120.609 144.252 120.578C144.125 120.493 144.093 120.318 144.178 120.191C144.284 120.032 155.015 103.88 155.015 71.4805C155.015 71.327 155.142 71.2 155.295 71.2C155.449 71.2 155.576 71.327 155.576 71.4805C155.576 104.071 144.755 120.345 144.644 120.503C144.591 120.583 144.501 120.625 144.411 120.625Z" fill="#407BFF"/>
<path opacity="0.2" d="M28.1957 95.6161C28.1957 95.6161 28.1533 95.6161 28.1322 95.6108L13.5576 92.2596C13.4094 92.2226 13.3141 92.0744 13.3459 91.9261C13.3776 91.7779 13.5312 91.6826 13.6794 91.7144L28.2063 95.0549L52.2254 92.3179C52.3789 92.302 52.5166 92.4079 52.5325 92.5614C52.5483 92.7149 52.4425 92.8526 52.2889 92.8685L28.2222 95.6108C28.2222 95.6108 28.201 95.6108 28.1904 95.6108L28.1957 95.6161Z" fill="#407BFF"/>
<path opacity="0.2" d="M182.348 92.2702C182.274 92.2702 182.205 92.2437 182.147 92.1855C182.041 92.0743 182.041 91.8996 182.147 91.7884C187.24 86.7961 189.95 75.1386 189.95 68.6375C189.95 68.484 190.077 68.3569 190.231 68.3569C190.384 68.3569 190.511 68.484 190.511 68.6375C190.511 75.2339 187.743 87.0873 182.544 92.1855C182.491 92.2384 182.417 92.2649 182.348 92.2649V92.2702Z" fill="#407BFF"/>
<path d="M141.34 77.0445H148.598C149.16 77.0445 149.62 76.5839 149.62 76.0227C149.62 75.4616 149.16 75.001 148.598 75.001H141.34C140.779 75.001 140.318 75.4616 140.318 76.0227C140.318 76.5839 140.779 77.0445 141.34 77.0445Z" fill="#407BFF"/>
<path d="M173.184 77.0445H180.437C180.998 77.0445 181.459 76.5839 181.459 76.0227C181.459 75.4616 180.998 75.001 180.437 75.001H173.184C172.623 75.001 172.162 75.4616 172.162 76.0227C172.162 76.5839 172.623 77.0445 173.184 77.0445Z" fill="#407BFF"/>
<path opacity="0.7" d="M13.1077 92.6777C11.6094 91.7671 9.16359 90.3271 6.3895 88.8501C4.80129 90.5707 3.64718 92.3336 2.80013 94.3612C3.63659 94.5306 4.59482 94.9224 5.78598 95.8382C9.32241 98.5594 18.7935 96.1506 13.1077 92.6777Z" fill="#396CB7"/>
<path opacity="0.3" d="M105.494 71.475H179.447C183.227 71.475 186.943 70.5009 190.236 68.6427C190.236 68.6427 178.272 57.7687 154.178 53.0835C144.278 51.1564 134.892 50.41 132.007 50.5953C125.125 54.2217 114.579 61.8504 105.494 71.475Z" fill="#407BFF"/>
<path d="M61.1406 116.951H8.56535C7.30007 116.951 6.62773 115.458 7.46419 114.511L8.82476 112.975C9.10535 112.663 9.5024 112.483 9.92592 112.483H59.7853C60.2036 112.483 60.6059 112.663 60.8865 112.975L62.2471 114.511C63.0835 115.458 62.4112 116.951 61.1459 116.951H61.1406Z" fill="#4C5C75"/>
<path d="M199.067 92.4924L195.753 93.133V84.1543L199.067 84.7949C199.517 84.8796 199.85 85.4884 199.85 86.2031V91.0789C199.85 91.7989 199.511 92.4024 199.067 92.4871V92.4924Z" fill="#407BFF"/>
<path d="M253.918 136.941C256.549 136.941 258 136.285 258 135.099C258 134.088 256.872 133.341 254.548 132.823C252.293 132.314 249.021 132.05 245.083 132.05H202.603C200.025 132.05 198.082 131.298 196.668 129.752C192.841 125.564 193.698 116.13 194.323 109.243C194.535 106.903 194.736 104.695 194.736 102.969C194.736 100.391 194.397 98.1254 194.101 96.1295C193.704 93.456 192.862 91.2907 193.714 90.2954C194.275 89.6443 195.445 89.3319 197.298 89.3319V87.659C194.9 87.659 193.36 88.1513 192.449 89.2049C191.094 90.7772 191.988 93.2813 192.449 96.3783C192.74 98.3212 193.068 100.524 193.068 102.975C193.068 104.621 192.873 106.792 192.661 109.095C191.973 116.692 191.11 126.147 195.435 130.885C197.161 132.775 199.57 133.728 202.608 133.728H245.077C251.933 133.728 254.982 134.533 255.994 135.036C255.607 135.152 254.945 135.268 253.913 135.268V136.941H253.918Z" fill="#407BFF"/>
<path d="M199.702 85.6472V91.4601C198.098 91.4601 196.796 90.1578 196.796 88.5537C196.796 86.9496 198.098 85.6472 199.702 85.6472Z" fill="#407BFF"/>
<path d="M218 2H245V135H218V2Z" fill="#263238"/>
<path d="M236 20.1293H230.895L235.357 13H229.747L226 23.0713H230.664L227.82 32.1667L236 20.1293Z" fill="white"/>
<path d="M236 20.1293H230.895L227.25 19.6667L226 23.0713H230.664L227.82 32.1668L236 20.1293Z" fill="#407BFF"/>
<path d="M220 0H251V2H220V0Z" fill="#263238"/>
<path opacity="0.4" d="M220 0H226.104V1.64645H220V0Z" fill="black"/>
<path d="M250.33 135.38H242.325L242.325 1.64651H250.33L250.33 135.38Z" fill="#263238"/>
<path opacity="0.5" d="M230.807 89.4598C228.981 87.6342 228.981 84.6744 230.807 82.8488C232.633 81.0233 235.592 81.0233 237.418 82.8488C239.244 84.6744 239.244 87.6342 237.418 89.4598C235.592 91.2853 232.633 91.2853 230.807 89.4598Z" fill="#407BFF"/>
<path opacity="0.4" d="M250.33 135.38H242.325L242.325 1.64651H250.33L250.33 135.38Z" fill="black"/>
<path d="M254.077 136.941C254.538 136.941 254.914 136.565 254.914 136.105C254.914 135.644 254.538 135.268 254.077 135.268C251.382 135.268 249.524 134.601 248.391 133.23C245.787 130.086 247.084 123.304 248.455 116.125C249.365 111.36 250.308 106.432 250.308 101.852C250.308 91.1901 244.558 85.3137 234.113 85.3137C233.653 85.3137 233.277 85.6896 233.277 86.1502C233.277 86.6108 233.653 86.9866 234.113 86.9866C240.736 86.9866 248.629 89.5648 248.629 101.852C248.629 106.273 247.703 111.122 246.808 115.807C245.363 123.383 243.992 130.541 247.1 134.294C248.571 136.073 250.853 136.941 254.077 136.941Z" fill="#407BFF"/>
<path opacity="0.5" d="M238.697 44.0625H222V77.8068H238.697V44.0625Z" fill="#407BFF"/>
<path opacity="0.5" d="M222 44.0625V77.8068L227.977 48.7583L222 44.0625Z" fill="#407BFF"/>
<path d="M235.526 55.4447L235.865 53.793H231.307L230.968 55.4447H229.205L225.976 71.1204H234.102L237.332 55.4447H235.526Z" fill="#407BFF"/>
<path opacity="0.4" d="M235.103 61.0088L233.44 69.0875C233.324 69.6593 232.821 70.0669 232.239 70.0669H228.183C227.712 70.0669 227.363 69.6381 227.458 69.1775L229.12 61.0988C229.237 60.527 229.74 60.1194 230.322 60.1194H234.377C234.849 60.1194 235.198 60.5482 235.103 61.0088Z" fill="white"/>
<path opacity="0.4" d="M222 44.0625H238.697V48.7583H227.977L222 44.0625Z" fill="#263238"/>
<path d="M181.368 38.0851L181.368 26.1127L181.368 14.1402M181.368 14.1402L174.609 20.6761M181.368 14.1402L187.904 20.8998" stroke="#407BFF" stroke-width="4" stroke-linecap="round" stroke-linejoin="round"/>
<path d="M200.343 14.9998L200.343 26.9723L200.343 38.9447M200.343 38.9447L207.103 32.4088M200.343 38.9447L193.808 32.1852" stroke="#A5A5A5" stroke-width="4" stroke-linecap="round" stroke-linejoin="round"/>
</svg>
