<svg width="27" height="24" viewBox="0 0 27 24" fill="none" xmlns="http://www.w3.org/2000/svg">
<path fill-rule="evenodd" clip-rule="evenodd" d="M1.4598 21.3784H24.7571C25.5629 21.3784 26.2169 21.961 26.2169 22.6922C26.2169 23.4235 25.5695 24.0001 24.7571 24.0001H1.4598C0.653935 24.0001 0 23.4175 0 22.6922C0 21.967 0.64733 21.3784 1.4598 21.3784Z" fill="white"/>
<path fill-rule="evenodd" clip-rule="evenodd" d="M18.6731 20.0137V11.0506V1C18.6731 0.447715 19.1208 0 19.6731 0H22.8188C23.7133 0 24.4288 0.90046 24.4288 2.01405V3.88423V19.5561C24.4288 20.1083 23.9811 20.5561 23.4288 20.5561H19.2155C18.916 20.5561 18.6731 20.3132 18.6731 20.0137ZM22.7843 2.77C22.7843 2.14789 22.4495 1.64454 22.0309 1.64454H20.1626V19.3409H22.7843V2.77Z" fill="white"/>
<path fill-rule="evenodd" clip-rule="evenodd" d="M5.34051 0C3.68192 0 2.34076 1.6651 2.34076 3.74648V20.5561H13.8001C15.6492 20.5561 17.1411 18.6927 17.1411 16.3834V0H5.34051Z" fill="white"/>
<path d="M11.3658 4.61304L9.38638 5.34791M11.3658 4.61304L11.7759 6.72732M11.3658 4.61304L8.48352 9.60533L12.2086 10.4382L11.0016 12.5289L9.79448 14.6197" stroke="#407BFF" stroke-width="1.5" stroke-linecap="round" stroke-linejoin="round"/>
<path d="M11.4265 14.552L9.4471 15.2869L9.03704 13.1726" stroke="#407BFF" stroke-width="1.5" stroke-linecap="round" stroke-linejoin="round"/>
</svg>
