<svg xmlns="http://www.w3.org/2000/svg" xmlns:xlink="http://www.w3.org/1999/xlink" width="112" height="88" version="1.0" viewBox="0 0 84 66">
  <!-- <path fill="#fff" d="M 77.844 0 L 74.547 0 L 57.047 2.152 C 54.176 2.438 52.023 5.023 52.023 7.891 L 52.023 8.609 L 59.77 11.477 C 61.777 7.891 64.648 5.738 67.805 5.738 C 72.395 5.738 76.266 10.332 78.133 17.074 C 77.125 13.773 74.113 11.477 70.672 11.477 C 69.668 11.477 68.809 11.766 67.805 12.195 C 68.664 12.625 69.383 13.344 69.813 14.348 L 70.672 14.348 C 73.828 14.348 76.41 16.93 76.41 20.086 L 76.41 31.566 C 76.41 34.723 73.828 37.305 70.672 37.305 L 69.953 37.305 C 69.523 38.164 68.809 38.883 67.945 39.457 C 68.809 40.031 69.813 40.176 70.816 40.176 C 72.535 40.176 74.258 39.602 75.551 38.594 C 76.84 37.59 77.844 36.156 78.273 34.578 C 76.41 41.32 72.535 45.914 67.945 45.914 C 64.793 45.914 61.922 43.762 59.914 40.176 L 52.023 43.043 L 52.023 43.762 C 52.023 46.629 54.176 49.07 57.047 49.5 L 74.688 51.652 L 77.844 51.652 C 81 51.652 83.582 49.07 83.582 45.914 L 83.582 5.738 C 83.582 2.582 81 0 77.844 0 Z M 77.844 0"></path> -->
  <path fill="#fff" d="M 77.844 0 L 74.547 0 L 57.047 2.152 C 54.176 2.438 52.023 5.023 52.023 7.891 L 52.023 8.609 L 59.77 11.477 C 61.777 7.891 64.648 5.738 67.805 5.738 C 72.395 5.738 76.266 10.332 78.133 17.074 C 80.247 24.774 77.844 36.156 78.273 34.578 C 76.41 41.32 72.535 45.914 67.945 45.914 C 64.793 45.914 61.922 43.762 59.914 40.176 L 52.023 43.043 L 52.023 43.762 C 52.023 46.629 54.176 49.07 57.047 49.5 L 74.688 51.652 L 77.844 51.652 C 81 51.652 83.582 49.07 83.582 45.914 L 83.582 5.738 C 83.582 2.582 81 0 77.844 0 Z M 77.844 0"></path>
  <path fill="#fff" d="M 21.043 54.523 L 17.602 66 L 24.773 66 L 28.215 54.523 L 21.043 54.523 Z M 45.426 37.305 L 64.934 37.305 C 66.512 37.305 67.805 36.012 67.805 34.434 L 70.672 34.434 C 72.25 34.434 73.539 33.145 73.539 31.566 L 73.539 20.086 C 73.539 18.508 72.25 17.219 70.672 17.219 L 67.805 17.219 C 67.805 15.641 66.512 14.348 64.934 14.348 L 41.84 14.348 C 34.238 14.348 27.641 19.227 25.348 26.543 L 18.746 47.922 C 18.176 49.785 19.609 51.652 21.473 51.652 L 29.938 51.652 C 31.082 51.652 32.23 50.934 32.66 49.785 L 34.813 44.477 C 36.535 40.176 40.695 37.305 45.426 37.305 Z"></path>
</svg>
