<svg xmlns="http://www.w3.org/2000/svg" xmlns:xlink="http://www.w3.org/1999/xlink" width="112" height="88" version="1.0" viewBox="0 0 84 66">
  <defs>
    <clipPath id="a">
      <path d="M.359375 0h83.25v52h-83.25Zm0 0"/>
    </clipPath>
  </defs>
  <use xlink:href="#reuse-0"/>
  <use xlink:href="#reuse-0"/>
  <use xlink:href="#reuse-0"/>
  <g clip-path="url(#a)">
    <path fill="#fff" d="M77.84375 0h-3.296875l-17.5 2.152344c-2.871094.285156-5.023437 2.871094-5.023437 5.738281v.71875h-5.734376c0-3.15625-2.582031-5.738281-5.738281-5.738281H6.125c-3.15625 0-5.738281 2.582031-5.738281 5.738281v34.433594c0 3.15625 2.582031 5.738281 5.738281 5.738281h9.609375c0-.574219.144531-1.144531.289063-1.71875l.859374-2.585938H7.558594c-1.578125 0-2.867188-1.289062-2.867188-2.867187V10.042969c0-1.578125 1.289063-2.867188 2.867188-2.867188h31.558594c1.578124 0 2.867187 1.289063 2.867187 2.867188v1.433593h17.785156c2.007813-3.585937 4.878907-5.738281 8.035157-5.738281 4.589843 0 8.460937 4.59375 10.328124 11.335938-1.007812-3.300781-4.019531-5.597657-7.460937-5.597657-1.003906 0-1.863281.289063-2.867187.71875.859374.429688 1.578124 1.148438 2.007812 2.152344h.859375c3.15625 0 5.738281 2.582032 5.738281 5.738282v11.480468c0 3.15625-2.582031 5.738282-5.738281 5.738282h-.71875c-.429687.859374-1.144531 1.578124-2.007813 2.152343.863282.574219 1.867188.71875 2.871094.71875 1.71875 0 3.441406-.574219 4.734375-1.582031 1.289063-1.003906 2.292969-2.4375 2.722657-4.015625-1.863282 6.742187-5.738282 11.335937-10.328126 11.335937-3.152343 0-6.023437-2.152343-8.03125-5.738281h-14.34375c-1.289062 0-2.4375.285157-3.441406.714844v.71875c0 1.578125-1.292968 2.867187-2.871094 2.867187h-1.144531c-.144531.289063-.433593.71875-.574219 1.148438l-1.292968 3.15625h4.304687c3.15625 0 5.738281-2.582031 5.738281-5.738281h5.734376v.71875c0 2.867187 2.152343 5.308593 5.023437 5.738281L74.6875 51.652344h3.15625c3.15625 0 5.738281-2.582032 5.738281-5.738282V5.738281C83.582031 2.582031 81 0 77.84375 0Zm0 0"/>
  </g>
  <path fill="#fff" d="M21.042969 54.523438 17.601562 66h7.171876l3.441406-11.476562h-7.171875ZM45.425781 37.304688h19.507813c1.578125 0 2.871094-1.292969 2.871094-2.871094h2.867187c1.578125 0 2.867187-1.289063 2.867187-2.867188V20.085938c0-1.578126-1.289062-2.867188-2.867187-2.867188h-2.867187c0-1.578125-1.292969-2.871094-2.871094-2.871094h-23.09375c-7.601563 0-14.199219 4.878906-16.492188 12.195313l-6.601562 21.378906c-.570313 1.863281.863281 3.730469 2.726562 3.730469H29.9375c1.144531 0 2.292969-.71875 2.722656-1.867188l2.152344-5.308594c1.722656-4.300781 5.882812-7.171874 10.613281-7.171874Zm-.285156-12.339844 4.304687-5.738282c.429688-.574218 1.433594-.71875 2.007813-.289062.570313.433594.714844 1.4375.285156 2.011719l-2.582031 3.441406h2.867188c.574218 0 1.007812.289063 1.292968.863281.285156.570313.144532 1.003906-.144531 1.433594l-4.300781 5.738281c-.289063.429688-.71875.574219-1.148438.574219-.289062 0-.574218-.144531-.859375-.285156-.574219-.433594-.71875-1.4375-.289062-2.011719l2.582031-3.441406h-2.867188c-.574218 0-1.003906-.289063-1.292968-.863281-.285156-.574219-.144532-1.003907.144531-1.433594Zm0 0"/>
</svg>
